<svg xmlns="http://www.w3.org/2000/svg" xmlns:xlink="http://www.w3.org/1999/xlink" width="75.815" height="87.823" viewBox="0 0 75.815 87.823">
  <defs>
    <filter id="Path_27" x="1.715" y="1.802" width="72.385" height="86.021" filterUnits="userSpaceOnUse">
      <feOffset dy="6" input="SourceAlpha"/>
      <feGaussianBlur result="blur"/>
      <feFlood flood-opacity="0.161"/>
      <feComposite operator="in" in2="blur"/>
      <feComposite in="SourceGraphic"/>
    </filter>
  </defs>
  <g id="Group_12" data-name="Group 12" transform="translate(-58.093 -237.382)">
    <g transform="matrix(1, 0, 0, 1, 58.09, 237.38)" filter="url(#Path_27)">
      <path id="Path_27-2" data-name="Path 27" d="M39.684,66.216a5.669,5.669,0,0,1-5.669-5.668v-18.6a5.669,5.669,0,1,1-11.339,0,5.669,5.669,0,1,1-11.338,0V36.509A5.669,5.669,0,1,1,0,36.509V11.339A11.339,11.339,0,0,1,11.339,0H34.015A11.339,11.339,0,0,1,45.354,11.339V60.547a5.669,5.669,0,0,1-5.669,5.668" transform="translate(40.99 81.82) rotate(-150)" fill="#8dcdfa"/>
    </g>
    <g id="Group_7" data-name="Group 7" transform="translate(133.02 261.465) rotate(120)">
      <path id="Path_2" data-name="Path 2" d="M6.031,4.308V3.016A3.015,3.015,0,1,0,0,3.016V4.308A1.722,1.722,0,0,0,1.723,6.031H4.307A1.723,1.723,0,0,0,6.031,4.308" transform="translate(44.997 2.784) rotate(90)" fill="#8dcdfa"/>
      <path id="Path_2_-_Outline" data-name="Path 2 - Outline" d="M4.307,6.681H1.723A2.375,2.375,0,0,1-.65,4.308V3.016a3.665,3.665,0,1,1,7.331,0V4.308A2.376,2.376,0,0,1,4.307,6.681ZM3.015.65A2.364,2.364,0,0,0,.65,3.016V4.308A1.074,1.074,0,0,0,1.723,5.381H4.307A1.074,1.074,0,0,0,5.381,4.308V3.016A2.368,2.368,0,0,0,3.015.65Z" transform="translate(44.997 2.784) rotate(90)" fill="#fff"/>
      <path id="Path_3" data-name="Path 3" d="M6.031,4.308V3.016A3.015,3.015,0,1,0,0,3.016V4.308A1.722,1.722,0,0,0,1.723,6.031H4.307A1.723,1.723,0,0,0,6.031,4.308Z" transform="translate(44.997 2.784) rotate(90)" fill="#8dcdfa"/>
      <path id="Path_3_-_Outline" data-name="Path 3 - Outline" d="M4.307,6.681H1.723A2.375,2.375,0,0,1-.65,4.308V3.016a3.665,3.665,0,1,1,7.331,0V4.308A2.376,2.376,0,0,1,4.307,6.681ZM3.015.65A2.364,2.364,0,0,0,.65,3.016V4.308A1.074,1.074,0,0,0,1.723,5.381H4.307A1.074,1.074,0,0,0,5.381,4.308V3.016A2.368,2.368,0,0,0,3.015.65Z" transform="translate(44.997 2.784) rotate(90)" fill="#fff"/>
      <path id="Path_4" data-name="Path 4" d="M6.031,4.308V3.016A3.015,3.015,0,1,0,0,3.016V4.308A1.723,1.723,0,0,0,1.723,6.031H4.308A1.722,1.722,0,0,0,6.031,4.308" transform="translate(44.997 14.381) rotate(90)" fill="#8dcdfa"/>
      <path id="Path_4_-_Outline" data-name="Path 4 - Outline" d="M4.308,6.681H1.723A2.376,2.376,0,0,1-.65,4.308V3.016a3.665,3.665,0,1,1,7.331,0V4.308A2.375,2.375,0,0,1,4.308,6.681ZM3.016.65A2.364,2.364,0,0,0,.65,3.016V4.308A1.074,1.074,0,0,0,1.723,5.381H4.308A1.074,1.074,0,0,0,5.381,4.308V3.016A2.368,2.368,0,0,0,3.016.65Z" transform="translate(44.997 14.381) rotate(90)" fill="#fff"/>
      <path id="Path_5" data-name="Path 5" d="M6.031,4.308V3.016A3.015,3.015,0,1,0,0,3.016V4.308A1.723,1.723,0,0,0,1.723,6.031H4.308A1.722,1.722,0,0,0,6.031,4.308Z" transform="translate(44.997 14.381) rotate(90)" fill="#8dcdfa"/>
      <path id="Path_5_-_Outline" data-name="Path 5 - Outline" d="M4.308,6.681H1.723A2.376,2.376,0,0,1-.65,4.308V3.016a3.665,3.665,0,1,1,7.331,0V4.308A2.375,2.375,0,0,1,4.308,6.681ZM3.016.65A2.364,2.364,0,0,0,.65,3.016V4.308A1.074,1.074,0,0,0,1.723,5.381H4.308A1.074,1.074,0,0,0,5.381,4.308V3.016A2.368,2.368,0,0,0,3.016.65Z" transform="translate(44.997 14.381) rotate(90)" fill="#fff"/>
      <path id="Path_6" data-name="Path 6" d="M5.8,23.195A5.8,5.8,0,0,1,0,17.4V5.8a5.8,5.8,0,1,1,11.6,0V17.4a5.8,5.8,0,0,1-5.8,5.8M8.815,5.8a3.015,3.015,0,1,0-6.031,0V7.091A1.722,1.722,0,0,0,4.507,8.814H7.091A1.723,1.723,0,0,0,8.815,7.091Z" transform="translate(47.78 0) rotate(90)" fill="#8dcdfa"/>
      <path id="Path_6_-_Outline" data-name="Path 6 - Outline" d="M5.8,23.845A6.456,6.456,0,0,1-.65,17.4V5.8a6.449,6.449,0,1,1,12.9,0V17.4A6.456,6.456,0,0,1,5.8,23.845ZM5.8.65A5.148,5.148,0,0,0,.65,5.8V17.4a5.149,5.149,0,1,0,10.3,0V5.8A5.155,5.155,0,0,0,5.8.65ZM7.091,9.464H4.507A2.375,2.375,0,0,1,2.134,7.091V5.8a3.665,3.665,0,1,1,7.331,0V7.091A2.376,2.376,0,0,1,7.091,9.464ZM5.8,3.433A2.364,2.364,0,0,0,3.434,5.8V7.091A1.074,1.074,0,0,0,4.507,8.164H7.091A1.074,1.074,0,0,0,8.165,7.091V5.8A2.368,2.368,0,0,0,5.8,3.433Z" transform="translate(47.78 0) rotate(90)" fill="#fff"/>
      <path id="Path_7" data-name="Path 7" d="M5.8,23.195A5.8,5.8,0,0,1,0,17.4V5.8a5.8,5.8,0,1,1,11.6,0V17.4A5.8,5.8,0,0,1,5.8,23.195ZM8.815,5.8a3.015,3.015,0,1,0-6.031,0V7.091A1.722,1.722,0,0,0,4.507,8.814H7.091A1.723,1.723,0,0,0,8.815,7.091Z" transform="translate(47.78 0) rotate(90)" fill="#8dcdfa"/>
      <path id="Path_7_-_Outline" data-name="Path 7 - Outline" d="M5.8,23.845A6.456,6.456,0,0,1-.65,17.4V5.8a6.449,6.449,0,1,1,12.9,0V17.4A6.456,6.456,0,0,1,5.8,23.845ZM5.8.65A5.148,5.148,0,0,0,.65,5.8V17.4a5.149,5.149,0,1,0,10.3,0V5.8A5.155,5.155,0,0,0,5.8.65ZM7.091,9.464H4.507A2.375,2.375,0,0,1,2.134,7.091V5.8a3.665,3.665,0,1,1,7.331,0V7.091A2.376,2.376,0,0,1,7.091,9.464ZM5.8,3.433A2.364,2.364,0,0,0,3.434,5.8V7.091A1.074,1.074,0,0,0,4.507,8.164H7.091A1.074,1.074,0,0,0,8.165,7.091V5.8A2.368,2.368,0,0,0,5.8,3.433Z" transform="translate(47.78 0) rotate(90)" fill="#fff"/>
      <path id="Path_8" data-name="Path 8" d="M6.031,4.308V3.016A3.015,3.015,0,1,0,0,3.016V4.308A1.722,1.722,0,0,0,1.723,6.031H4.307A1.723,1.723,0,0,0,6.031,4.308" transform="translate(44.997 2.784) rotate(90)" fill="#8dcdfa"/>
      <path id="Path_8_-_Outline" data-name="Path 8 - Outline" d="M4.307,6.681H1.723A2.375,2.375,0,0,1-.65,4.308V3.016a3.665,3.665,0,1,1,7.331,0V4.308A2.376,2.376,0,0,1,4.307,6.681ZM3.015.65A2.364,2.364,0,0,0,.65,3.016V4.308A1.074,1.074,0,0,0,1.723,5.381H4.307A1.074,1.074,0,0,0,5.381,4.308V3.016A2.368,2.368,0,0,0,3.015.65Z" transform="translate(44.997 2.784) rotate(90)" fill="#fff"/>
      <path id="Path_9" data-name="Path 9" d="M6.031,4.308V3.016A3.015,3.015,0,1,0,0,3.016V4.308A1.722,1.722,0,0,0,1.723,6.031H4.307A1.723,1.723,0,0,0,6.031,4.308Z" transform="translate(44.997 2.784) rotate(90)" fill="#8dcdfa"/>
      <path id="Path_9_-_Outline" data-name="Path 9 - Outline" d="M4.307,6.681H1.723A2.375,2.375,0,0,1-.65,4.308V3.016a3.665,3.665,0,1,1,7.331,0V4.308A2.376,2.376,0,0,1,4.307,6.681ZM3.015.65A2.364,2.364,0,0,0,.65,3.016V4.308A1.074,1.074,0,0,0,1.723,5.381H4.307A1.074,1.074,0,0,0,5.381,4.308V3.016A2.368,2.368,0,0,0,3.015.65Z" transform="translate(44.997 2.784) rotate(90)" fill="#fff"/>
      <path id="Path_10" data-name="Path 10" d="M5.8,28.762a5.8,5.8,0,0,1-5.8-5.8V5.8a5.8,5.8,0,1,1,11.6,0V22.963a5.8,5.8,0,0,1-5.8,5.8M8.814,5.8a3.015,3.015,0,1,0-6.031,0V7.091A1.723,1.723,0,0,0,4.507,8.814H7.091A1.722,1.722,0,0,0,8.814,7.091Z" transform="translate(47.78 11.598) rotate(90)" fill="#8dcdfa"/>
      <path id="Path_10_-_Outline" data-name="Path 10 - Outline" d="M5.8,29.412A6.456,6.456,0,0,1-.65,22.963V5.8a6.448,6.448,0,1,1,12.9,0V22.963A6.456,6.456,0,0,1,5.8,29.412ZM5.8.65A5.148,5.148,0,0,0,.65,5.8V22.963a5.148,5.148,0,1,0,10.3,0V5.8A5.154,5.154,0,0,0,5.8.65ZM7.091,9.464H4.507A2.376,2.376,0,0,1,2.133,7.091V5.8a3.665,3.665,0,1,1,7.331,0V7.091A2.375,2.375,0,0,1,7.091,9.464ZM5.8,3.433A2.364,2.364,0,0,0,3.433,5.8V7.091A1.074,1.074,0,0,0,4.507,8.164H7.091A1.074,1.074,0,0,0,8.164,7.091V5.8A2.368,2.368,0,0,0,5.8,3.433Z" transform="translate(47.78 11.598) rotate(90)" fill="#fff"/>
      <path id="Path_11" data-name="Path 11" d="M5.8,28.762a5.8,5.8,0,0,1-5.8-5.8V5.8a5.8,5.8,0,1,1,11.6,0V22.963A5.8,5.8,0,0,1,5.8,28.762ZM8.814,5.8a3.015,3.015,0,1,0-6.031,0V7.091A1.723,1.723,0,0,0,4.507,8.814H7.091A1.722,1.722,0,0,0,8.814,7.091Z" transform="translate(47.78 11.598) rotate(90)" fill="#8dcdfa"/>
      <path id="Path_11_-_Outline" data-name="Path 11 - Outline" d="M5.8,29.412A6.456,6.456,0,0,1-.65,22.963V5.8a6.448,6.448,0,1,1,12.9,0V22.963A6.456,6.456,0,0,1,5.8,29.412ZM5.8.65A5.148,5.148,0,0,0,.65,5.8V22.963a5.148,5.148,0,1,0,10.3,0V5.8A5.154,5.154,0,0,0,5.8.65ZM7.091,9.464H4.507A2.376,2.376,0,0,1,2.133,7.091V5.8a3.665,3.665,0,1,1,7.331,0V7.091A2.375,2.375,0,0,1,7.091,9.464ZM5.8,3.433A2.364,2.364,0,0,0,3.433,5.8V7.091A1.074,1.074,0,0,0,4.507,8.164H7.091A1.074,1.074,0,0,0,8.164,7.091V5.8A2.368,2.368,0,0,0,5.8,3.433Z" transform="translate(47.78 11.598) rotate(90)" fill="#fff"/>
      <path id="Path_12" data-name="Path 12" d="M6.031,4.308V3.016A3.015,3.015,0,1,0,0,3.016V4.308A1.723,1.723,0,0,0,1.723,6.031H4.308A1.722,1.722,0,0,0,6.031,4.308" transform="translate(44.997 14.381) rotate(90)" fill="#8dcdfa"/>
      <path id="Path_12_-_Outline" data-name="Path 12 - Outline" d="M4.308,6.681H1.723A2.376,2.376,0,0,1-.65,4.308V3.016a3.665,3.665,0,1,1,7.331,0V4.308A2.375,2.375,0,0,1,4.308,6.681ZM3.016.65A2.364,2.364,0,0,0,.65,3.016V4.308A1.074,1.074,0,0,0,1.723,5.381H4.308A1.074,1.074,0,0,0,5.381,4.308V3.016A2.368,2.368,0,0,0,3.016.65Z" transform="translate(44.997 14.381) rotate(90)" fill="#fff"/>
      <path id="Path_13" data-name="Path 13" d="M6.031,4.308V3.016A3.015,3.015,0,1,0,0,3.016V4.308A1.723,1.723,0,0,0,1.723,6.031H4.308A1.722,1.722,0,0,0,6.031,4.308Z" transform="translate(44.997 14.381) rotate(90)" fill="#8dcdfa"/>
      <path id="Path_13_-_Outline" data-name="Path 13 - Outline" d="M4.308,6.681H1.723A2.376,2.376,0,0,1-.65,4.308V3.016a3.665,3.665,0,1,1,7.331,0V4.308A2.375,2.375,0,0,1,4.308,6.681ZM3.016.65A2.364,2.364,0,0,0,.65,3.016V4.308A1.074,1.074,0,0,0,1.723,5.381H4.308A1.074,1.074,0,0,0,5.381,4.308V3.016A2.368,2.368,0,0,0,3.016.65Z" transform="translate(44.997 14.381) rotate(90)" fill="#fff"/>
      <path id="Path_14" data-name="Path 14" d="M11.6,22.963V5.8A5.8,5.8,0,1,0,0,5.8V22.963a5.8,5.8,0,0,0,11.6,0" transform="translate(47.78 23.194) rotate(90)" fill="#8dcdfa"/>
      <path id="Path_14_-_Outline" data-name="Path 14 - Outline" d="M5.8,29.412A6.456,6.456,0,0,1-.65,22.963V5.8a6.449,6.449,0,1,1,12.9,0V22.963A6.456,6.456,0,0,1,5.8,29.412ZM5.8.65A5.148,5.148,0,0,0,.65,5.8V22.963a5.149,5.149,0,0,0,10.3,0V5.8A5.155,5.155,0,0,0,5.8.65Z" transform="translate(47.78 23.194) rotate(90)" fill="#fff"/>
      <path id="Path_15" data-name="Path 15" d="M11.6,22.963V5.8A5.8,5.8,0,1,0,0,5.8V22.963a5.8,5.8,0,0,0,11.6,0Z" transform="translate(47.78 23.194) rotate(90)" fill="#8dcdfa"/>
      <path id="Path_15_-_Outline" data-name="Path 15 - Outline" d="M5.8,29.412A6.456,6.456,0,0,1-.65,22.963V5.8a6.449,6.449,0,1,1,12.9,0V22.963A6.456,6.456,0,0,1,5.8,29.412ZM5.8.65A5.148,5.148,0,0,0,.65,5.8V22.963a5.149,5.149,0,0,0,10.3,0V5.8A5.155,5.155,0,0,0,5.8.65Z" transform="translate(47.78 23.194) rotate(90)" fill="#fff"/>
      <path id="Path_16" data-name="Path 16" d="M34.792,25.747V61.93a5.8,5.8,0,0,0,11.6,0V11.6A11.6,11.6,0,0,0,34.792,0H11.6A11.6,11.6,0,0,0,0,11.6V25.747a5.8,5.8,0,0,1,11.6,0,5.8,5.8,0,1,1,11.6,0,5.783,5.783,0,0,1,1.7-4.1Z" transform="translate(67.728 0) rotate(90)" fill="#8dcdfa"/>
      <path id="Path_16_-_Outline" data-name="Path 16 - Outline" d="M34.792-.65A12.248,12.248,0,0,1,47.04,11.6V61.93a6.449,6.449,0,0,1-12.9,0V26.181L25.063,22.42a5.113,5.113,0,0,0-1.218,3.327h-1.3a5.148,5.148,0,1,0-10.3,0h-1.3a5.149,5.149,0,1,0-10.3,0H-.65V11.6A12.248,12.248,0,0,1,11.6-.65Zm5.8,67.728A5.154,5.154,0,0,0,45.74,61.93V11.6A10.96,10.96,0,0,0,34.792.65H11.6A10.96,10.96,0,0,0,.65,11.6V21.862a6.554,6.554,0,0,1,.588-.675A6.449,6.449,0,0,1,11.6,22.922a6.451,6.451,0,0,1,11.6,0,6.464,6.464,0,0,1,1.24-1.735l.307-.307,10.7,4.433V61.93A5.154,5.154,0,0,0,40.591,67.078Z" transform="translate(67.728 0) rotate(90)" fill="#fff"/>
      <path id="Path_17" data-name="Path 17" d="M34.792,25.747V61.93a5.8,5.8,0,0,0,11.6,0V11.6A11.6,11.6,0,0,0,34.792,0H11.6A11.6,11.6,0,0,0,0,11.6V25.747a5.8,5.8,0,0,1,11.6,0,5.8,5.8,0,1,1,11.6,0,5.783,5.783,0,0,1,1.7-4.1Z" transform="translate(67.728 0) rotate(90)" fill="#8dcdfa"/>
      <path id="Path_17_-_Outline" data-name="Path 17 - Outline" d="M34.792-.65A12.248,12.248,0,0,1,47.04,11.6V61.93a6.449,6.449,0,0,1-12.9,0V26.181L25.063,22.42a5.113,5.113,0,0,0-1.218,3.327h-1.3a5.148,5.148,0,1,0-10.3,0h-1.3a5.149,5.149,0,1,0-10.3,0H-.65V11.6A12.248,12.248,0,0,1,11.6-.65Zm5.8,67.728A5.154,5.154,0,0,0,45.74,61.93V11.6A10.96,10.96,0,0,0,34.792.65H11.6A10.96,10.96,0,0,0,.65,11.6V21.862a6.554,6.554,0,0,1,.588-.675A6.449,6.449,0,0,1,11.6,22.922a6.451,6.451,0,0,1,11.6,0,6.464,6.464,0,0,1,1.24-1.735l.307-.307,10.7,4.433V61.93A5.154,5.154,0,0,0,40.591,67.078Z" transform="translate(67.728 0) rotate(90)" fill="#fff"/>
      <path id="Path_18" data-name="Path 18" d="M6.031,4.308V3.016A3.015,3.015,0,1,0,0,3.016V4.308A1.722,1.722,0,0,0,1.723,6.031H4.307A1.723,1.723,0,0,0,6.031,4.308" transform="translate(44.997 2.784) rotate(90)" fill="#8dcdfa"/>
      <path id="Path_18_-_Outline" data-name="Path 18 - Outline" d="M4.307,6.681H1.723A2.375,2.375,0,0,1-.65,4.308V3.016a3.665,3.665,0,1,1,7.331,0V4.308A2.376,2.376,0,0,1,4.307,6.681ZM3.015.65A2.364,2.364,0,0,0,.65,3.016V4.308A1.074,1.074,0,0,0,1.723,5.381H4.307A1.074,1.074,0,0,0,5.381,4.308V3.016A2.368,2.368,0,0,0,3.015.65Z" transform="translate(44.997 2.784) rotate(90)" fill="#fff"/>
      <path id="Path_19" data-name="Path 19" d="M6.031,4.308V3.016A3.015,3.015,0,1,0,0,3.016V4.308A1.722,1.722,0,0,0,1.723,6.031H4.307A1.723,1.723,0,0,0,6.031,4.308Z" transform="translate(44.997 2.784) rotate(90)" fill="#8dcdfa"/>
      <path id="Path_19_-_Outline" data-name="Path 19 - Outline" d="M4.307,6.681H1.723A2.375,2.375,0,0,1-.65,4.308V3.016a3.665,3.665,0,1,1,7.331,0V4.308A2.376,2.376,0,0,1,4.307,6.681ZM3.015.65A2.364,2.364,0,0,0,.65,3.016V4.308A1.074,1.074,0,0,0,1.723,5.381H4.307A1.074,1.074,0,0,0,5.381,4.308V3.016A2.368,2.368,0,0,0,3.015.65Z" transform="translate(44.997 2.784) rotate(90)" fill="#fff"/>
      <path id="Path_20" data-name="Path 20" d="M6.031,4.308V3.016A3.015,3.015,0,1,0,0,3.016V4.308A1.723,1.723,0,0,0,1.723,6.031H4.308A1.722,1.722,0,0,0,6.031,4.308" transform="translate(44.997 14.381) rotate(90)" fill="#8dcdfa"/>
      <path id="Path_20_-_Outline" data-name="Path 20 - Outline" d="M4.308,6.681H1.723A2.376,2.376,0,0,1-.65,4.308V3.016a3.665,3.665,0,1,1,7.331,0V4.308A2.375,2.375,0,0,1,4.308,6.681ZM3.016.65A2.364,2.364,0,0,0,.65,3.016V4.308A1.074,1.074,0,0,0,1.723,5.381H4.308A1.074,1.074,0,0,0,5.381,4.308V3.016A2.368,2.368,0,0,0,3.016.65Z" transform="translate(44.997 14.381) rotate(90)" fill="#fff"/>
      <path id="Path_21" data-name="Path 21" d="M6.031,4.308V3.016A3.015,3.015,0,1,0,0,3.016V4.308A1.723,1.723,0,0,0,1.723,6.031H4.308A1.722,1.722,0,0,0,6.031,4.308Z" transform="translate(44.997 14.381) rotate(90)" fill="#8dcdfa"/>
      <path id="Path_21_-_Outline" data-name="Path 21 - Outline" d="M4.308,6.681H1.723A2.376,2.376,0,0,1-.65,4.308V3.016a3.665,3.665,0,1,1,7.331,0V4.308A2.375,2.375,0,0,1,4.308,6.681ZM3.016.65A2.364,2.364,0,0,0,.65,3.016V4.308A1.074,1.074,0,0,0,1.723,5.381H4.308A1.074,1.074,0,0,0,5.381,4.308V3.016A2.368,2.368,0,0,0,3.016.65Z" transform="translate(44.997 14.381) rotate(90)" fill="#fff"/>
      <path id="Path_22" data-name="Path 22" d="M28.993,20.7V11.6A11.6,11.6,0,0,0,17.4,0H9.129a12.3,12.3,0,0,0,8.983,20.7H4.624A4.623,4.623,0,0,0,0,25.321V30.6a.948.948,0,0,0,.948.949h17.2A10.849,10.849,0,0,0,28.993,20.7" transform="translate(67.728 17.397) rotate(90)" fill="#8dcdfa"/>
      <path id="Path_22_-_Outline" data-name="Path 22 - Outline" d="M18.144,32.2H.948a1.6,1.6,0,0,1-1.6-1.6V25.321a5.272,5.272,0,0,1,5.274-5.275h7.819A12.955,12.955,0,0,1,8.655-.444L8.847-.65H17.4A12.248,12.248,0,0,1,29.643,11.6v9.1a11.5,11.5,0,0,1-11.5,11.5ZM4.624,21.346A3.973,3.973,0,0,0,.65,25.321V30.6a.3.3,0,0,0,.3.3h17.2a10.211,10.211,0,0,0,10.2-10.2V11.6A10.96,10.96,0,0,0,17.4.65H9.416a11.648,11.648,0,0,0,.461,15.984,11.571,11.571,0,0,0,8.236,3.412v1.3Z" transform="translate(67.728 17.397) rotate(90)" fill="#fff"/>
      <path id="Path_23" data-name="Path 23" d="M28.993,20.7V11.6A11.6,11.6,0,0,0,17.4,0H9.129a12.3,12.3,0,0,0,8.983,20.7H4.624A4.623,4.623,0,0,0,0,25.321V30.6a.948.948,0,0,0,.948.949h17.2A10.849,10.849,0,0,0,28.993,20.7Z" transform="translate(67.728 17.397) rotate(90)" fill="#8dcdfa"/>
      <path id="Path_23_-_Outline" data-name="Path 23 - Outline" d="M18.144,32.2H.948a1.6,1.6,0,0,1-1.6-1.6V25.321a5.272,5.272,0,0,1,5.274-5.275h7.819A12.955,12.955,0,0,1,8.655-.444L8.847-.65H17.4A12.248,12.248,0,0,1,29.643,11.6v9.1a11.5,11.5,0,0,1-11.5,11.5ZM4.624,21.346A3.973,3.973,0,0,0,.65,25.321V30.6a.3.3,0,0,0,.3.3h17.2a10.211,10.211,0,0,0,10.2-10.2V11.6A10.96,10.96,0,0,0,17.4.65H9.416a11.648,11.648,0,0,0,.461,15.984,11.571,11.571,0,0,0,8.236,3.412v1.3Z" transform="translate(67.728 17.397) rotate(90)" fill="#fff"/>
      <path id="Path_24" data-name="Path 24" d="M9.347,2.784h-1.3v-.9A1.233,1.233,0,0,0,6.816.65H0V-.65H6.816A2.534,2.534,0,0,1,9.347,1.881Z" transform="translate(38.967 17.397) rotate(90)" fill="#fff"/>
    </g>
  </g>
</svg>
